<svg xmlns="http://www.w3.org/2000/svg" xmlns:xlink="http://www.w3.org/1999/xlink" width="2000" zoomAndPan="magnify" viewBox="0 0 1500 1124.99995" height="1500" preserveAspectRatio="xMidYMid meet" version="1.0"><path fill="#000000" d="M 1352.496094 434.808594 C 1351.234375 418.808594 1348.570312 402.917969 1344.226562 387.457031 C 1339.785156 371.652344 1333.332031 356.554688 1326.332031 341.738281 C 1319.863281 328.058594 1313.933594 312.714844 1305.03125 300.320312 C 1305.546875 298.816406 1306.070312 297.324219 1306.675781 295.863281 C 1307.757812 293.257812 1309.980469 290.511719 1310.523438 287.792969 C 1311.878906 280.9375 1301.355469 282.296875 1295.890625 283.460938 C 1295.886719 280.171875 1293.152344 276.835938 1291.011719 274.570312 C 1290.488281 274.019531 1285.796875 269.917969 1283.542969 267.316406 C 1286.234375 265.261719 1288.855469 263.058594 1290.097656 259.84375 C 1292.472656 253.699219 1293.539062 246.703125 1295.183594 240.320312 C 1297.121094 232.8125 1299.257812 225.261719 1300.21875 217.554688 C 1300.238281 217.382812 1300.089844 217.285156 1299.949219 217.292969 C 1299.925781 216.328125 1299.851562 215.351562 1299.75 214.378906 C 1299.867188 213.136719 1299.929688 211.886719 1299.957031 210.648438 C 1300.382812 205.496094 1300.386719 200.335938 1300.117188 195.378906 C 1299.527344 184.636719 1297.636719 173.96875 1295.546875 163.429688 C 1294.144531 156.351562 1292.664062 148.425781 1288.042969 142.679688 C 1287.625 141.558594 1287.207031 140.433594 1286.796875 139.3125 C 1282.125 132.238281 1276.78125 125.617188 1271.078125 119.683594 C 1257.605469 105.660156 1240.109375 97.769531 1221.519531 92.855469 C 1202.007812 87.6875 1180.972656 86.449219 1161.507812 92.515625 C 1145.148438 97.621094 1128.566406 108.355469 1120.0625 123.714844 C 1119.417969 123.324219 1118.78125 122.933594 1118.144531 122.539062 C 1117.613281 121.808594 1116.515625 121.808594 1116.078125 122.644531 C 1110.304688 133.621094 1104.742188 144.820312 1101.757812 156.917969 C 1100.5625 161.757812 1099.148438 167.710938 1099.1875 173.355469 C 1097.1875 176.785156 1095.984375 180.5 1095.179688 184.457031 C 1091.203125 184.832031 1087.203125 185.261719 1083.167969 184.992188 C 1076.6875 184.570312 1070.769531 182.660156 1064.445312 181.539062 C 1056.777344 180.1875 1050.246094 191.019531 1046.273438 196.367188 C 1046.160156 196.515625 1046.097656 196.691406 1046.0625 196.871094 C 1038.527344 202.703125 1025.910156 204.957031 1017.078125 207.472656 C 1006.417969 210.507812 994.820312 211.234375 984.464844 214.976562 C 984.023438 215.136719 983.890625 215.519531 983.957031 215.898438 C 963.84375 221.738281 945.027344 229.253906 926.515625 239.175781 C 915.761719 244.945312 906.15625 252.023438 895.796875 258.402344 C 885.261719 264.878906 874.757812 271.410156 864.238281 277.917969 C 844.152344 290.34375 824.890625 303.59375 806.765625 318.773438 C 792.445312 330.769531 777.371094 342.726562 764.800781 356.722656 C 763.570312 357.339844 762.417969 358.402344 761.558594 359.171875 C 760.980469 359.691406 760.472656 360.242188 759.988281 360.820312 C 759.660156 360.835938 759.324219 360.96875 759.058594 361.300781 C 748.386719 374.324219 743.644531 388.632812 738.246094 404.394531 C 732.539062 421.054688 726.21875 437.984375 722.835938 455.3125 C 722.710938 455.359375 722.585938 455.394531 722.464844 455.453125 C 722.414062 455.40625 722.351562 455.371094 722.28125 455.386719 C 719.425781 455.925781 717.515625 457.859375 715.132812 459.542969 C 712.390625 461.484375 708.265625 463.476562 706.351562 466.304688 C 703.984375 469.816406 704.480469 475.488281 705 480.628906 C 705 480.996094 704.984375 481.355469 704.988281 481.71875 C 705.039062 484.695312 704.890625 487.933594 705.261719 490.953125 C 701.601562 493.867188 694.886719 496.980469 693.839844 497.394531 C 691.433594 498.359375 688.957031 499.140625 686.464844 499.867188 C 684.578125 500.421875 680.492188 500.664062 678.984375 501.859375 C 676.164062 504.082031 674.824219 511.027344 673.472656 514.382812 C 671.105469 520.257812 668.871094 526.179688 666.644531 532.109375 C 646.628906 536.972656 626.476562 541.433594 606.21875 545.160156 C 600.402344 546.230469 594.335938 547.71875 588.402344 547.917969 C 583.296875 548.09375 578.722656 546.703125 573.929688 545.140625 C 563.65625 541.789062 552.773438 539.859375 542.054688 538.65625 C 517.515625 535.90625 493.085938 537.609375 469.273438 542.632812 C 464.539062 542.828125 459.878906 544.105469 455.273438 545.222656 C 454.757812 545.34375 454.246094 545.464844 453.726562 545.585938 C 453.894531 545.511719 454.066406 545.433594 454.238281 545.355469 C 454.078125 545.398438 453.925781 545.441406 453.765625 545.472656 C 450.785156 546.300781 447.769531 546.988281 444.667969 547.382812 C 408.429688 557.582031 373.089844 571.691406 337.472656 583.695312 C 318.316406 590.148438 299.1875 596.640625 279.863281 602.582031 C 260.773438 608.449219 241.261719 613.238281 222.304688 619.515625 C 222.128906 619.359375 221.894531 619.277344 221.65625 619.339844 C 219.859375 619.824219 218.039062 619.207031 216.210938 619.1875 C 214.867188 619.164062 213.546875 619.316406 212.25 619.609375 C 212.222656 619.546875 212.199219 619.488281 212.148438 619.429688 C 209.214844 615.929688 206.113281 610.355469 201.550781 613.621094 C 198.199219 616.015625 193.945312 620.667969 193.453125 624.957031 C 193.203125 627.136719 194.113281 629.304688 194.757812 631.363281 C 195.617188 634.121094 196.09375 637.621094 197.746094 640.070312 C 200.160156 643.648438 206.09375 644.6875 209.855469 642.984375 C 210.285156 642.789062 210.382812 642.386719 210.257812 642.0625 C 210.902344 641.417969 211.324219 640.414062 211.746094 639.746094 C 212.695312 638.242188 213.601562 636.710938 214.472656 635.15625 C 217.792969 634.019531 223.601562 632.058594 223.984375 628.785156 C 262.453125 621.816406 300.496094 609.632812 337.851562 598.359375 C 356.4375 592.742188 374.980469 586.996094 393.597656 581.515625 C 402.488281 578.894531 411.402344 576.457031 420.257812 573.878906 C 429.269531 571.777344 438.265625 568.601562 447.097656 566.546875 C 459.3125 563.710938 471.738281 561.472656 484.164062 559.777344 C 506.613281 556.714844 529.558594 556.128906 551.863281 560.625 C 561.085938 562.488281 570.480469 567.382812 579.878906 567.867188 C 589.585938 568.363281 600.238281 564.777344 609.660156 562.945312 C 629.121094 559.167969 648.5625 555.304688 668.0625 551.730469 C 668.0625 551.738281 668.0625 551.742188 668.0625 551.753906 C 670.691406 566.738281 679.078125 585.542969 696.660156 584.941406 C 697.390625 585.816406 698.222656 586.597656 699.253906 586.90625 C 700.800781 587.359375 703.042969 586.777344 704.585938 586.628906 C 706.484375 586.4375 708.390625 586.355469 710.203125 585.910156 C 710.867188 587.148438 711.550781 588.386719 712.28125 589.589844 C 713.882812 592.222656 715.683594 593.851562 718.859375 594.347656 C 725.183594 595.34375 730.257812 590.757812 732.992188 585.441406 C 734.625 589.953125 737.746094 595.125 741.617188 594.890625 C 743.691406 594.761719 745.316406 592.625 746.746094 591.359375 C 750.46875 588.066406 754.109375 584.789062 757.4375 581.085938 C 758.199219 580.242188 758.929688 579.382812 759.664062 578.519531 C 759.644531 578.601562 759.730469 578.65625 759.796875 578.601562 C 763.386719 575.398438 766.574219 571.613281 770.019531 568.238281 C 772.367188 565.9375 774.691406 563.554688 776.390625 560.75 C 778.121094 559.316406 777.628906 556.214844 777.496094 553.976562 C 777.203125 549.148438 777.554688 544.015625 776.046875 539.378906 C 776.828125 539.28125 777.59375 539.132812 778.324219 538.839844 C 780.425781 538.011719 782.628906 536.078125 783.957031 534.3125 C 785.472656 532.289062 784.929688 531.121094 783.898438 528.921875 C 782.589844 526.132812 781.027344 523.492188 779.183594 521.042969 C 784.5 514.574219 788.351562 505.824219 790.726562 498.714844 C 792.5 493.40625 793.765625 488.542969 792.046875 483.09375 C 790.484375 478.160156 787.558594 473.101562 784.691406 468.589844 C 793.753906 460.527344 801.734375 450.367188 808.210938 440.8125 C 814.707031 431.214844 819.386719 419.789062 825.949219 410.011719 C 851.773438 392.28125 879.160156 377.15625 906.902344 362.65625 C 920.796875 355.402344 934.445312 347.773438 947.582031 339.222656 C 956.921875 333.136719 967.640625 326.757812 976.25 318.902344 C 974.472656 325.875 975.46875 333.84375 975.726562 340.945312 C 975.796875 342.910156 975.835938 344.886719 975.90625 346.859375 C 972.894531 350.222656 969.992188 353.621094 967.707031 357.664062 C 964.292969 363.71875 963.40625 370.9375 959.691406 376.742188 C 957.472656 380.207031 954.523438 386.613281 956.050781 391.03125 C 955.753906 391.117188 955.476562 391.316406 955.296875 391.667969 C 950.664062 400.550781 945.882812 408.378906 937.339844 413.972656 C 931.753906 417.632812 925.925781 420.914062 920.386719 424.644531 C 906.589844 433.941406 898.34375 448.738281 886.957031 460.59375 C 866.757812 481.621094 845.425781 502.394531 827.011719 525.238281 C 826.980469 525.265625 826.9375 525.28125 826.90625 525.316406 C 803.496094 549.824219 780.691406 575.816406 761.402344 603.757812 C 752.292969 616.949219 745.046875 631.671875 737.207031 645.648438 C 732.964844 653.203125 728.730469 660.757812 724.488281 668.3125 C 721.195312 674.179688 717.0625 680.195312 714.328125 686.523438 C 713.53125 687.339844 712.773438 688.195312 712.085938 689.148438 C 710.664062 691.097656 709.820312 693.632812 708.339844 695.488281 C 706.484375 697.796875 703.976562 697.742188 701.988281 699.527344 C 700.5625 700.8125 700.304688 702.878906 698.488281 703.855469 C 698.082031 704.070312 697.941406 704.40625 697.953125 704.746094 C 685.210938 701.777344 669.945312 704.921875 657.886719 708.28125 C 642.492188 712.574219 627.667969 718.980469 612.96875 725.1875 C 605.308594 728.425781 597.671875 731.722656 590.117188 735.195312 C 582.664062 738.621094 575.246094 742.875 567.464844 745.472656 C 561.453125 747.480469 554.359375 745.585938 549.585938 750.457031 C 548.007812 752.070312 546.71875 754.09375 546.03125 756.257812 C 545.945312 756.296875 545.855469 756.332031 545.769531 756.390625 C 544.421875 757.25 544.164062 758.074219 543.070312 759.070312 C 540.265625 761.640625 537.921875 762.445312 534.8125 764.273438 C 533.1875 765.230469 531.617188 766.074219 531.113281 767.722656 C 529.875 767.335938 527.957031 766.375 527.25 766.296875 C 525.660156 766.125 524.558594 766.21875 523.082031 766.785156 C 521.128906 767.53125 519.785156 769.292969 518.039062 770.351562 C 514.898438 772.257812 511.898438 772.117188 508.753906 773.441406 C 506.53125 774.371094 504.945312 776.164062 503.242188 777.777344 C 499.851562 781 495.808594 781.992188 491.304688 782.988281 C 487.578125 783.804688 483.769531 783.984375 480.609375 785.652344 C 479.851562 781.375 477.203125 777.566406 475.449219 773.613281 C 474.492188 771.453125 473.648438 769.210938 472.855469 766.941406 C 476.601562 761.855469 479.226562 755.441406 482 749.925781 C 485.515625 742.925781 488.847656 735.851562 491.566406 728.5 C 493.75 722.59375 496.960938 716.421875 497.835938 710.167969 C 498.792969 703.359375 497.769531 695.800781 497.730469 688.925781 C 497.730469 688.28125 497.140625 687.808594 496.53125 687.808594 C 492.820312 687.804688 489.652344 689.183594 487.542969 691.839844 C 487.308594 691.714844 487.023438 691.714844 486.820312 691.957031 C 480.871094 699.234375 476.082031 707.324219 471.675781 715.605469 C 467.132812 724.148438 461.855469 733.679688 459.425781 743.101562 C 457.464844 750.71875 461.890625 760.378906 463.394531 767.875 C 465.613281 778.957031 461.414062 789.5 459.28125 800.34375 C 458.167969 800.796875 457.097656 801.074219 456.078125 801.914062 C 455.089844 802.734375 454.035156 804.023438 453.359375 805.414062 C 450.339844 804.542969 447.019531 806.277344 444.957031 808.949219 C 444.1875 809.9375 443.132812 813.8125 442.136719 814.328125 C 440.734375 815.042969 439.699219 813.859375 438.472656 813.789062 C 436.074219 813.652344 435.453125 814.1875 433.710938 815.835938 C 429.769531 819.5625 426.5 823.042969 421.257812 825.074219 C 418.316406 826.207031 414.800781 826.339844 412.167969 828.140625 C 411.214844 828.789062 410.421875 829.628906 409.855469 830.550781 C 409.808594 830.566406 409.769531 830.574219 409.726562 830.597656 C 403.785156 833.769531 394.617188 837.28125 390.464844 842.820312 C 386.957031 847.492188 388.894531 855.335938 391.570312 860.515625 C 389.730469 860.023438 387.917969 859.507812 385.972656 859.769531 C 384.242188 860.003906 382.925781 860.867188 381.695312 861.910156 C 378.238281 861.746094 374.464844 860.25 371.308594 861.535156 C 369.695312 862.195312 369.304688 862.9375 368.191406 864.253906 C 365.949219 866.917969 363.492188 869.292969 361.007812 871.714844 C 358.988281 873.683594 353.347656 877.191406 354.074219 880.0625 C 351.9375 880.769531 349.941406 881.742188 349.074219 884.089844 C 348.886719 884.585938 349.074219 887.351562 348.988281 887.480469 C 348.777344 887.808594 347.941406 887.542969 347 888.0625 C 345.808594 888.726562 345.152344 889.460938 344.351562 890.53125 C 343.476562 891.714844 343.050781 893.558594 342.304688 894.828125 C 341.410156 896.355469 340.132812 897.578125 339.339844 899.0625 C 335.46875 899.511719 331.699219 900.535156 327.761719 900.96875 C 324.328125 901.34375 320.683594 901.046875 317.363281 902.140625 C 311.75 903.996094 306.445312 908.75 301.785156 913.09375 C 298.726562 912.53125 295.308594 913.269531 292.40625 914.113281 C 290.933594 914.535156 288.847656 915.183594 287.335938 916.273438 C 286.894531 915.191406 286.53125 914.1875 284.824219 913.941406 C 282.824219 913.652344 280.96875 915.136719 279.445312 916.179688 C 273.804688 920.046875 268.316406 924.488281 263.566406 929.402344 C 263.316406 929.660156 263.3125 929.925781 263.425781 930.148438 C 263.15625 930.105469 262.886719 930.066406 262.613281 930.023438 C 256.035156 928.914062 249.503906 927.511719 243.019531 925.953125 C 229.503906 922.707031 216.210938 918.589844 202.621094 915.667969 C 196.742188 914.40625 189.78125 914.386719 184.269531 911.859375 C 180.253906 910.019531 179.503906 907.199219 176.976562 904.234375 C 176.125 903.242188 175.417969 902.53125 174.125 902.152344 C 171.226562 901.308594 167.644531 903.257812 165.117188 904.460938 C 162.277344 905.816406 159.695312 907.507812 157.394531 909.535156 C 145.664062 913.015625 156.488281 931.1875 159.40625 937.390625 C 162.582031 944.125 166.023438 950.722656 169.6875 957.207031 C 173.003906 963.082031 176.277344 969.503906 180.644531 974.753906 C 180.773438 974.957031 180.90625 975.160156 181.046875 975.347656 C 181.359375 975.875 181.679688 976.390625 181.992188 976.914062 C 182.054688 977.007812 182.132812 977.078125 182.203125 977.144531 C 182.167969 977.527344 182.347656 977.921875 182.851562 978.117188 C 193.855469 982.339844 206.144531 983.441406 217.761719 984.933594 C 229.546875 986.441406 241.335938 987.4375 253.183594 988.246094 C 274.867188 989.722656 295.777344 993.0625 316.648438 999.171875 C 337.410156 1005.253906 357.617188 1013.046875 378.078125 1020.046875 C 397.535156 1026.699219 417.441406 1033.257812 438.035156 1034.773438 C 443.476562 1036.179688 448.953125 1037.566406 454.527344 1038.199219 C 458.046875 1038.59375 461.5625 1038.605469 464.765625 1038.003906 C 464.800781 1038.003906 464.832031 1038.027344 464.871094 1038.027344 C 478.515625 1036.238281 487.28125 1022.761719 486.472656 1009.574219 C 485.660156 996.335938 475.84375 982.066406 464.832031 974.125 C 460.351562 967.988281 451.742188 964.4375 444.554688 964.222656 C 437.410156 964.007812 430.5 967.070312 423.582031 968.464844 C 419.414062 969.300781 415.230469 969.867188 410.972656 970.074219 C 407.488281 970.246094 398.75 971.117188 394.4375 969.785156 C 398.378906 966.394531 401.054688 961.363281 404.59375 957.609375 C 407.933594 954.078125 412.078125 951.136719 415.464844 947.621094 C 416.203125 947.539062 416.96875 947.429688 417.742188 947.277344 C 424.289062 946.871094 430.777344 945.078125 436.660156 942.191406 C 444.996094 938.105469 449.402344 929.957031 457.796875 926.277344 C 474.628906 918.914062 490.820312 910.925781 506.507812 901.40625 C 507.480469 902.554688 508.453125 903.710938 509.386719 904.90625 C 509.75 905.367188 510.355469 905.570312 510.917969 905.363281 C 517.210938 903.035156 523.5625 900.710938 529.417969 897.390625 C 532.25 895.789062 534.949219 893.980469 537.441406 891.878906 C 539.890625 889.816406 541.996094 886.964844 544.894531 885.585938 C 550.445312 882.949219 557.261719 883.808594 563.019531 881.246094 C 567.558594 879.222656 570.269531 875.378906 573.941406 872.410156 C 575.789062 873.996094 578.125 874.855469 580.625 874.148438 C 582.332031 873.667969 583.867188 871.894531 585.46875 871.074219 C 588.003906 869.777344 590.800781 869.074219 593.507812 868.257812 C 597.066406 867.183594 600.609375 866.511719 603.996094 864.941406 C 605.113281 864.421875 605.390625 863.070312 604.855469 862.128906 C 632.042969 849.183594 656.324219 830.890625 681.980469 815.191406 C 701.335938 810.277344 720.566406 805.152344 739.769531 799.667969 C 757.753906 794.519531 775.355469 789.316406 791.878906 780.308594 C 807.320312 771.894531 820.398438 761.058594 833.089844 748.988281 C 840.847656 741.609375 849.355469 733.515625 856.421875 724.683594 C 866.730469 715.058594 879.386719 708.351562 890.847656 700.210938 C 897.300781 695.621094 903.203125 690.359375 909.167969 685.15625 C 913.808594 681.109375 919.496094 677.171875 923.941406 672.554688 C 926.875 673.214844 929.90625 673.476562 932.871094 674.210938 C 937.730469 675.421875 942.410156 677.335938 946.675781 679.976562 C 949.980469 682.019531 953.101562 684.457031 955.9375 687.109375 C 958.167969 689.1875 959.839844 691.945312 961.984375 694.085938 C 959.003906 696.28125 956.214844 698.835938 953.734375 700.863281 C 947.894531 705.644531 941.898438 710.9375 937.644531 717.21875 C 937.070312 716.859375 936.519531 716.46875 935.984375 716.050781 C 935.574219 715.695312 934.796875 715.667969 934.371094 716.027344 C 927.582031 721.835938 920.917969 728.300781 916.011719 735.808594 C 915.664062 736.339844 915.882812 736.84375 916.28125 737.132812 C 914.96875 740.558594 913.761719 743.75 910.378906 746.035156 C 907.417969 748.03125 903.765625 748.820312 900.898438 750.996094 C 897.644531 753.476562 897.609375 756.632812 895.320312 759.683594 C 892.628906 763.277344 887.976562 763.667969 885.238281 767.480469 C 879.765625 775.097656 873.375 781.59375 866.34375 787.765625 C 860.640625 792.773438 854.253906 797.171875 848.671875 802.304688 C 848.496094 802.019531 848.285156 801.667969 848.019531 801.21875 C 847.601562 800.53125 846.726562 800.550781 846.179688 801.039062 C 836.417969 809.835938 824.066406 813.925781 814.011719 822.144531 C 808.273438 826.835938 801.3125 832.808594 799.339844 840.136719 C 799.269531 840.203125 799.210938 840.28125 799.167969 840.390625 C 798.613281 841.90625 798.046875 843.429688 797.675781 845 C 794.851562 848.257812 794.558594 853.480469 791.4375 856.875 C 787.085938 861.601562 781.460938 862.695312 776.355469 866.121094 C 772.507812 868.710938 771 875.230469 770.300781 879.527344 C 766.9375 880.300781 763.617188 881.125 760.105469 881.0625 C 757.136719 881.011719 754.132812 880.152344 751.152344 880.484375 C 746.484375 881.011719 744.074219 884.03125 740.886719 887.09375 C 735.527344 892.246094 729.347656 889.816406 723.519531 893.082031 C 717.652344 896.371094 713.140625 903.8125 708.84375 908.835938 C 708.472656 909.269531 708.371094 909.746094 708.4375 910.191406 C 705.332031 909.347656 701.707031 909.476562 698.621094 909.078125 C 691.382812 908.136719 684.144531 907.199219 676.90625 906.265625 C 662.472656 904.402344 647.65625 903.308594 633.496094 899.902344 C 627.019531 898.347656 620.777344 896.28125 615.140625 892.636719 C 609.910156 889.25 606.769531 884.449219 602.296875 880.332031 C 596.707031 875.183594 590.765625 877.054688 586.570312 881.746094 C 586.5625 881.75 586.5625 881.75 586.558594 881.757812 C 583.089844 884.960938 579.824219 888.324219 576.679688 891.847656 C 574.890625 893.855469 571.628906 896.296875 571.058594 899.039062 C 569.984375 904.175781 576.242188 911.496094 579.054688 915.320312 C 583.953125 921.976562 589.976562 926.957031 595.761719 932.769531 C 598.863281 935.890625 601.746094 939.226562 604.390625 942.746094 C 604.984375 943.527344 605.507812 944.34375 606.023438 945.15625 C 606.230469 945.339844 606.433594 945.546875 606.628906 945.789062 C 607.21875 946.515625 607.8125 947.222656 608.421875 947.933594 C 609.824219 949.003906 611.328125 949.929688 612.902344 950.707031 C 612.910156 950.683594 612.917969 950.65625 612.917969 950.632812 C 612.917969 950.550781 612.910156 950.472656 612.902344 950.390625 C 613.578125 950.675781 614.273438 950.949219 614.992188 951.191406 C 621.550781 953.363281 628.734375 954.414062 635.492188 955.695312 C 654.960938 959.390625 674.636719 961.660156 694.242188 964.445312 C 713.898438 967.234375 733.40625 970.644531 752.558594 975.945312 C 767.136719 979.980469 781.335938 984.851562 796.179688 986.667969 C 824.476562 995.496094 852.808594 1004.355469 881.320312 1012.460938 C 897.140625 1016.964844 913.046875 1021.152344 929.191406 1024.34375 C 935.347656 1025.558594 942.328125 1027.214844 949.386719 1028.15625 C 957.269531 1030.039062 965.558594 1030.941406 972.925781 1030.359375 C 982.339844 1029.609375 991.738281 1025.007812 996.519531 1016.566406 C 1000.96875 1008.714844 999.816406 999.597656 994.574219 992.464844 C 990.496094 986.921875 984.785156 982.75 979.246094 978.789062 C 976.753906 977.007812 974.269531 975.191406 971.769531 973.382812 C 967.378906 968.765625 962.273438 965.015625 955.886719 964.015625 C 943.441406 962.078125 932.335938 968.597656 920.625 971.472656 C 906.410156 974.957031 891.695312 972.191406 877.933594 968.0625 C 865.140625 964.222656 852.914062 958.179688 840.097656 954.589844 C 840.242188 954.511719 840.375 954.417969 840.472656 954.289062 C 842.929688 951.203125 845.371094 948.109375 847.851562 945.046875 C 851.753906 940.242188 856.132812 939.90625 861.207031 937.277344 C 865.996094 934.796875 867.210938 931.164062 867.488281 926.109375 C 867.578125 924.445312 867.433594 922.777344 867.769531 921.125 C 868.273438 918.609375 870.003906 917.132812 871.183594 915.085938 C 872 913.667969 872.246094 913.402344 872.714844 911.835938 C 873.796875 908.230469 874.171875 904.546875 875.480469 900.941406 C 876.898438 897.050781 878.90625 893.453125 880.394531 889.613281 C 880.828125 890.578125 881.367188 891.492188 881.972656 892.367188 C 883.121094 893.152344 884.027344 894.320312 884.464844 895.652344 C 884.636719 896.160156 884.800781 896.671875 884.964844 897.175781 C 884.988281 897.179688 884.996094 897.1875 885.015625 897.191406 C 885.253906 897.257812 885.457031 897.359375 885.675781 897.453125 C 888.746094 895.121094 892.046875 893.285156 895.574219 891.664062 C 898.5 890.316406 902.21875 889.460938 904.84375 887.664062 C 908.3125 885.296875 906.460938 879.023438 904.1875 875.867188 C 908.375 874.097656 913.6875 872.601562 917.777344 873.347656 C 921.277344 873.984375 922.757812 874.097656 926.589844 872.671875 C 931.460938 870.863281 935.820312 867.875 940.816406 866.378906 C 944.050781 865.410156 947.214844 865.417969 950.3125 864.625 C 956.066406 865.410156 962.726562 865.601562 968.0625 864.609375 C 972.042969 863.867188 974.738281 861.234375 976.476562 857.667969 C 977.011719 856.570312 977.285156 855.390625 977.773438 854.285156 C 978.980469 851.5625 980.394531 850.648438 982.667969 848.707031 C 984.351562 847.269531 985.960938 845.84375 987.21875 843.988281 C 990.117188 839.691406 991.648438 833.46875 991.285156 828.332031 C 991.261719 828.019531 991.105469 827.761719 990.894531 827.566406 C 993.984375 827.40625 997.125 826.746094 999.023438 824.84375 C 1000.3125 823.550781 1000.558594 821.328125 1001.078125 819.671875 C 1002.019531 816.644531 1003.214844 813.714844 1004.472656 810.8125 C 1004.519531 810.886719 1004.5625 810.957031 1004.640625 811.019531 C 1008.371094 814.210938 1012.058594 810.679688 1014.570312 807.878906 C 1016.054688 806.222656 1020.574219 802.527344 1020.363281 799.5 C 1023.789062 798.050781 1027.140625 796.304688 1030.453125 794.816406 C 1036.082031 792.292969 1041.703125 789.75 1047.257812 787.0625 C 1058.425781 781.664062 1069.128906 775.667969 1078.542969 767.527344 C 1087.222656 760.023438 1094.921875 751.46875 1102.246094 742.660156 C 1108.675781 734.933594 1114.375 726.128906 1121.046875 718.492188 C 1122.746094 717.082031 1124.425781 715.691406 1126.101562 714.375 C 1135.269531 707.148438 1144.328125 699.824219 1153.320312 692.367188 C 1166.488281 681.457031 1178.476562 669.066406 1181.464844 652 C 1183.03125 646.777344 1183.980469 641.3125 1184.199219 635.660156 C 1184.820312 619.300781 1178.445312 600.015625 1165.191406 589.363281 C 1165.453125 589.28125 1165.664062 589.070312 1165.695312 588.71875 C 1166.246094 582.59375 1167.957031 576.652344 1168.4375 570.546875 C 1168.914062 564.566406 1167.203125 558.613281 1167.761719 552.667969 C 1168.46875 545.144531 1173.40625 540.949219 1176.507812 534.589844 C 1178.453125 530.605469 1178.105469 526.433594 1178.566406 522.253906 C 1183.347656 520.507812 1190.332031 517.976562 1191.460938 517.089844 C 1198.109375 511.894531 1201.773438 502.363281 1206.421875 495.433594 C 1210.121094 489.917969 1216.058594 483.890625 1216.925781 477.046875 C 1217.308594 473.980469 1217.359375 470.519531 1217.15625 467.027344 C 1219.546875 464.984375 1221.871094 461.859375 1223.207031 460.539062 C 1229.191406 454.625 1234.945312 448.472656 1240.925781 442.550781 C 1245.25 438.273438 1249.957031 434.636719 1254.832031 431.011719 C 1255.023438 430.867188 1255.214844 430.730469 1255.402344 430.589844 C 1253.457031 441.171875 1254.179688 452.585938 1254.425781 463.246094 C 1254.78125 478.699219 1255.929688 494.128906 1257.492188 509.503906 C 1259.023438 524.480469 1260.953125 539.417969 1262.941406 554.335938 C 1263.953125 561.878906 1264.898438 569.445312 1266.144531 576.960938 C 1267.082031 582.59375 1267.804688 588.507812 1270.273438 593.699219 C 1271.21875 602.515625 1271.804688 611.34375 1271.167969 620.261719 C 1270.332031 631.953125 1266.597656 643.257812 1265.867188 654.96875 C 1265.386719 662.648438 1266.015625 670.484375 1266.863281 678.292969 C 1266.828125 680.886719 1266.9375 683.5 1267.089844 686.117188 C 1266.921875 690.277344 1266.796875 694.449219 1266.652344 698.617188 C 1266.597656 700.117188 1266.5 701.640625 1266.40625 703.164062 C 1261.394531 704.21875 1255.578125 706.367188 1251.703125 708.714844 C 1246.191406 712.046875 1244.332031 717.445312 1243.445312 723.550781 C 1242.855469 727.589844 1242.410156 731.65625 1241.894531 735.699219 C 1241.601562 738.023438 1240.3125 742.003906 1241.992188 744.070312 C 1243.386719 745.78125 1245.367188 745.742188 1247.359375 745.03125 C 1246.84375 747.402344 1246.011719 749.605469 1244.175781 751.332031 C 1241.296875 754.039062 1239.046875 756.21875 1237.3125 759.921875 C 1235.140625 764.546875 1234.164062 769.601562 1233.277344 774.597656 C 1232.523438 778.859375 1231.164062 783.566406 1231.289062 788.023438 C 1228.703125 793.339844 1226.398438 799.101562 1225.015625 804.6875 C 1224.667969 806.078125 1224.355469 807.742188 1224.296875 809.382812 C 1223.71875 808.570312 1223.167969 807.644531 1222.65625 806.558594 C 1221.433594 803.957031 1220.535156 801.136719 1218.695312 798.867188 C 1215.671875 795.15625 1211.15625 793.429688 1206.503906 792.941406 C 1197.613281 792.003906 1185.910156 793.789062 1179.886719 801.0625 C 1164.476562 812.863281 1155.804688 831.359375 1148.1875 849.242188 C 1142.527344 862.535156 1136.449219 875.574219 1129.710938 888.363281 C 1123.578125 900 1117.699219 913.273438 1107.742188 922.195312 C 1107.671875 922.1875 1107.605469 922.167969 1107.527344 922.171875 C 1106.066406 922.304688 1104.820312 923.238281 1104.144531 924.464844 C 1101.910156 924.03125 1099.496094 923.433594 1097.300781 923.75 C 1096.976562 923.796875 1096.707031 924.050781 1096.59375 924.347656 C 1094.890625 929.046875 1096.625 936.015625 1100.765625 938.917969 C 1103.628906 940.929688 1109.75 942.566406 1113.027344 940.378906 C 1113.667969 940.332031 1114.351562 939.925781 1114.652344 939.324219 C 1115.175781 938.289062 1114.902344 936.914062 1114.792969 935.824219 C 1114.714844 935.011719 1114.613281 934.207031 1114.519531 933.394531 C 1114.519531 933.335938 1114.519531 933.273438 1114.519531 933.199219 C 1114.527344 932.21875 1114.632812 931.148438 1114.828125 930.132812 C 1115.875 928.628906 1116.21875 926.046875 1115.785156 924.652344 C 1124.683594 918.066406 1131.242188 907.050781 1137.339844 898.292969 C 1144.78125 887.609375 1151.84375 876.65625 1158.636719 865.550781 C 1165.386719 854.511719 1171.527344 843.136719 1178.0625 831.976562 C 1181.523438 826.066406 1185.34375 820.335938 1190.625 815.894531 C 1193.480469 813.5 1196.414062 812.199219 1199.484375 811.132812 C 1206.878906 811.382812 1214.402344 823.839844 1217.753906 829.097656 C 1221.109375 834.375 1224.214844 840.179688 1229.726562 843.511719 C 1235.089844 846.761719 1241.695312 846.753906 1247.484375 844.574219 C 1251.476562 847.660156 1258.15625 847.140625 1262.714844 844.425781 C 1267.214844 845.519531 1269.027344 851.144531 1273.40625 852.402344 C 1277.019531 853.4375 1279.921875 851.382812 1283.117188 850.042969 C 1289.03125 847.5625 1295.453125 846.714844 1301.398438 844.332031 C 1306.886719 842.140625 1311.457031 838.644531 1316.109375 835.09375 C 1319.574219 832.460938 1323.59375 830.265625 1324.371094 825.664062 C 1325.292969 820.191406 1323.027344 813.765625 1322.039062 808.394531 C 1319.902344 796.675781 1318.296875 784.695312 1314.59375 773.351562 C 1314.894531 772.414062 1315.105469 771.5625 1315.277344 771.117188 C 1317.792969 764.867188 1321.441406 759.152344 1323.789062 752.816406 C 1327.453125 742.949219 1323.089844 735.21875 1318.898438 726.523438 C 1331.289062 705.894531 1342.089844 683.386719 1347.34375 660.175781 C 1350.375 646.792969 1351.035156 633.628906 1350.207031 619.953125 C 1349.269531 604.527344 1351.058594 589.542969 1351.117188 574.160156 C 1351.117188 573.953125 1350.96875 573.808594 1350.796875 573.765625 C 1351.167969 562.953125 1351.023438 552.109375 1351.285156 541.621094 C 1351.589844 529.40625 1352.011719 517.1875 1352.378906 504.972656 C 1352.707031 494.0625 1353.632812 482.835938 1353.179688 471.855469 C 1354.261719 459.585938 1353.457031 446.875 1352.496094 434.808594 " fill-opacity="1" fill-rule="nonzero"/></svg>